<mxfile host="app.diagrams.net" modified="2024-04-02T17:54:50.028Z" agent="Mozilla/5.0 (Windows NT 10.0; Win64; x64) AppleWebKit/537.36 (KHTML, like Gecko) Chrome/121.0.0.0 Safari/537.36 OPR/107.0.0.0" etag="mFKuEKthNSdguTjrlM3-" version="24.2.1" type="github">
  <diagram name="Page-1" id="0qeVKanikXQl7-phSICL">
    <mxGraphModel dx="663" dy="376" grid="1" gridSize="10" guides="1" tooltips="1" connect="1" arrows="1" fold="1" page="1" pageScale="1" pageWidth="827" pageHeight="1169" math="0" shadow="0">
      <root>
        <mxCell id="0" />
        <mxCell id="1" parent="0" />
        <mxCell id="Gn27nZYRL_z-Ap-s_AEF-1" value="Korisnik" style="shape=umlActor;verticalLabelPosition=bottom;verticalAlign=top;html=1;" vertex="1" parent="1">
          <mxGeometry x="120" y="110" width="60" height="100" as="geometry" />
        </mxCell>
        <mxCell id="Gn27nZYRL_z-Ap-s_AEF-2" value="Sud" style="shape=umlActor;verticalLabelPosition=bottom;verticalAlign=top;html=1;" vertex="1" parent="1">
          <mxGeometry x="120" y="330" width="60" height="120" as="geometry" />
        </mxCell>
        <mxCell id="Gn27nZYRL_z-Ap-s_AEF-3" value="Izdaje legalnu dokumentaciju" style="ellipse;whiteSpace=wrap;html=1;" vertex="1" parent="1">
          <mxGeometry x="330" y="300" width="190" height="70" as="geometry" />
        </mxCell>
        <mxCell id="Gn27nZYRL_z-Ap-s_AEF-4" value="Suspenduje vozacke dozvole" style="ellipse;whiteSpace=wrap;html=1;" vertex="1" parent="1">
          <mxGeometry x="510" y="340" width="190" height="70" as="geometry" />
        </mxCell>
        <mxCell id="Gn27nZYRL_z-Ap-s_AEF-5" value="Izdaje dokumentaciju o nekaznjavan&lt;span style=&quot;color: rgba(0, 0, 0, 0); font-family: monospace; font-size: 0px; text-align: start; text-wrap: nowrap;&quot;&gt;%3CmxGraphModel%3E%3Croot%3E%3CmxCell%20id%3D%220%22%2F%3E%3CmxCell%20id%3D%221%22%20parent%3D%220%22%2F%3E%3CmxCell%20id%3D%222%22%20value%3D%22Suspenduje%20vozacke%20dozvole%22%20style%3D%22ellipse%3BwhiteSpace%3Dwrap%3Bhtml%3D1%3B%22%20vertex%3D%221%22%20parent%3D%221%22%3E%3CmxGeometry%20x%3D%22330%22%20y%3D%22390%22%20width%3D%22190%22%20height%3D%2270%22%20as%3D%22geometry%22%2F%3E%3C%2FmxCell%3E%3C%2Froot%3E%3C%2FmxGraphModel%3E&lt;/span&gt;ju" style="ellipse;whiteSpace=wrap;html=1;" vertex="1" parent="1">
          <mxGeometry x="520" y="420" width="190" height="70" as="geometry" />
        </mxCell>
        <mxCell id="Gn27nZYRL_z-Ap-s_AEF-6" value="Zakazuje saslusanje" style="ellipse;whiteSpace=wrap;html=1;" vertex="1" parent="1">
          <mxGeometry x="530" y="500" width="190" height="70" as="geometry" />
        </mxCell>
        <mxCell id="Gn27nZYRL_z-Ap-s_AEF-7" value="Izdaje dozvole za pretres" style="ellipse;whiteSpace=wrap;html=1;" vertex="1" parent="1">
          <mxGeometry x="370" y="560" width="190" height="70" as="geometry" />
        </mxCell>
        <mxCell id="Gn27nZYRL_z-Ap-s_AEF-8" value="Zatrazuje dokumentaciju o nekaznjavan&lt;span style=&quot;text-wrap: nowrap; color: rgba(0, 0, 0, 0); font-family: monospace; font-size: 0px; text-align: start;&quot;&gt;%3CmxGraphModel%3E%3Croot%3E%3CmxCell%20id%3D%220%22%2F%3E%3CmxCell%20id%3D%221%22%20parent%3D%220%22%2F%3E%3CmxCell%20id%3D%222%22%20value%3D%22Suspenduje%20vozacke%20dozvole%22%20style%3D%22ellipse%3BwhiteSpace%3Dwrap%3Bhtml%3D1%3B%22%20vertex%3D%221%22%20parent%3D%221%22%3E%3CmxGeometry%20x%3D%22330%22%20y%3D%22390%22%20width%3D%22190%22%20height%3D%2270%22%20as%3D%22geometry%22%2F%3E%3C%2FmxCell%3E%3C%2Froot%3E%3C%2FmxGraphModel%3E&lt;/span&gt;ju" style="ellipse;whiteSpace=wrap;html=1;" vertex="1" parent="1">
          <mxGeometry x="340" y="60" width="190" height="70" as="geometry" />
        </mxCell>
        <mxCell id="Gn27nZYRL_z-Ap-s_AEF-9" value="Pregleda svu svoju legalnu dokumentaciju" style="ellipse;whiteSpace=wrap;html=1;" vertex="1" parent="1">
          <mxGeometry x="340" y="160" width="190" height="70" as="geometry" />
        </mxCell>
        <mxCell id="Gn27nZYRL_z-Ap-s_AEF-11" value="" style="endArrow=none;html=1;rounded=0;" edge="1" parent="1" target="Gn27nZYRL_z-Ap-s_AEF-3">
          <mxGeometry width="50" height="50" relative="1" as="geometry">
            <mxPoint x="150" y="380" as="sourcePoint" />
            <mxPoint x="440" y="380" as="targetPoint" />
          </mxGeometry>
        </mxCell>
        <mxCell id="Gn27nZYRL_z-Ap-s_AEF-12" value="" style="endArrow=none;html=1;rounded=0;exitX=0.5;exitY=0.5;exitDx=0;exitDy=0;exitPerimeter=0;" edge="1" parent="1" source="Gn27nZYRL_z-Ap-s_AEF-2" target="Gn27nZYRL_z-Ap-s_AEF-4">
          <mxGeometry width="50" height="50" relative="1" as="geometry">
            <mxPoint x="160" y="390" as="sourcePoint" />
            <mxPoint x="330" y="379" as="targetPoint" />
          </mxGeometry>
        </mxCell>
        <mxCell id="Gn27nZYRL_z-Ap-s_AEF-13" value="" style="endArrow=none;html=1;rounded=0;exitX=0.499;exitY=0.632;exitDx=0;exitDy=0;exitPerimeter=0;" edge="1" parent="1" source="Gn27nZYRL_z-Ap-s_AEF-2" target="Gn27nZYRL_z-Ap-s_AEF-5">
          <mxGeometry width="50" height="50" relative="1" as="geometry">
            <mxPoint x="155" y="490" as="sourcePoint" />
            <mxPoint x="340" y="514" as="targetPoint" />
          </mxGeometry>
        </mxCell>
        <mxCell id="Gn27nZYRL_z-Ap-s_AEF-14" value="" style="endArrow=none;html=1;rounded=0;exitX=0.501;exitY=0.671;exitDx=0;exitDy=0;exitPerimeter=0;" edge="1" parent="1" source="Gn27nZYRL_z-Ap-s_AEF-2" target="Gn27nZYRL_z-Ap-s_AEF-6">
          <mxGeometry width="50" height="50" relative="1" as="geometry">
            <mxPoint x="150" y="510" as="sourcePoint" />
            <mxPoint x="363" y="602" as="targetPoint" />
          </mxGeometry>
        </mxCell>
        <mxCell id="Gn27nZYRL_z-Ap-s_AEF-15" value="" style="endArrow=none;html=1;rounded=0;exitX=0.5;exitY=0.647;exitDx=0;exitDy=0;exitPerimeter=0;" edge="1" parent="1" source="Gn27nZYRL_z-Ap-s_AEF-2" target="Gn27nZYRL_z-Ap-s_AEF-7">
          <mxGeometry width="50" height="50" relative="1" as="geometry">
            <mxPoint x="120" y="500" as="sourcePoint" />
            <mxPoint x="354" y="677" as="targetPoint" />
          </mxGeometry>
        </mxCell>
        <mxCell id="Gn27nZYRL_z-Ap-s_AEF-16" value="" style="endArrow=none;html=1;rounded=0;exitX=0.505;exitY=0.43;exitDx=0;exitDy=0;exitPerimeter=0;entryX=0.036;entryY=0.676;entryDx=0;entryDy=0;entryPerimeter=0;" edge="1" parent="1" source="Gn27nZYRL_z-Ap-s_AEF-1" target="Gn27nZYRL_z-Ap-s_AEF-8">
          <mxGeometry width="50" height="50" relative="1" as="geometry">
            <mxPoint x="142" y="161" as="sourcePoint" />
            <mxPoint x="340" y="110" as="targetPoint" />
          </mxGeometry>
        </mxCell>
        <mxCell id="Gn27nZYRL_z-Ap-s_AEF-17" value="" style="endArrow=none;html=1;rounded=0;entryX=0.027;entryY=0.363;entryDx=0;entryDy=0;entryPerimeter=0;exitX=0.495;exitY=0.579;exitDx=0;exitDy=0;exitPerimeter=0;" edge="1" parent="1" source="Gn27nZYRL_z-Ap-s_AEF-1" target="Gn27nZYRL_z-Ap-s_AEF-9">
          <mxGeometry width="50" height="50" relative="1" as="geometry">
            <mxPoint x="160" y="163" as="sourcePoint" />
            <mxPoint x="362" y="120" as="targetPoint" />
          </mxGeometry>
        </mxCell>
      </root>
    </mxGraphModel>
  </diagram>
</mxfile>
